<?xml version="1.0" standalone="no"?>
<!DOCTYPE svg PUBLIC "-//W3C//DTD SVG 20010904//EN"
 "http://www.w3.org/TR/2001/REC-SVG-20010904/DTD/svg10.dtd">
<svg version="1.0" xmlns="http://www.w3.org/2000/svg"
 width="128.000000pt" height="128.000000pt" viewBox="0 0 128.000000 128.000000"
 preserveAspectRatio="xMidYMid meet">
<metadata>
Created by potrace 1.11, written by Peter Selinger 2001-2013
</metadata>
<g transform="translate(0.000000,128.000000) scale(0.100000,-0.100000)"
fill="#000000" stroke="none">
<path d="M1008 1221 c5 -13 3 -14 -9 -4 -9 7 -20 9 -29 3 -9 -6 -20 -4 -29 3
-12 10 -13 9 -6 -2 6 -11 3 -13 -13 -9 -12 3 -21 3 -20 -1 2 -20 -4 -22 -17
-5 -11 13 -14 14 -13 4 2 -8 -3 -14 -9 -12 -7 1 -13 -2 -13 -8 0 -5 -6 -7 -14
-4 -8 3 -17 1 -21 -5 -3 -6 -12 -11 -18 -11 -8 0 -7 3 2 9 10 7 7 9 -12 8 -20
-2 -23 -5 -14 -16 10 -12 9 -12 -12 -2 -13 7 -21 8 -17 3 3 -6 2 -13 -4 -17
-5 -3 -10 -1 -10 5 0 7 -7 5 -16 -4 -12 -13 -20 -14 -36 -5 -13 7 -18 7 -14 1
3 -6 2 -13 -4 -17 -5 -3 -10 0 -10 7 0 9 -2 10 -8 1 -4 -6 -21 -13 -37 -15
-17 -1 -29 -8 -28 -15 2 -7 -6 -10 -17 -8 -11 2 -20 -2 -20 -8 0 -7 -4 -6 -10
3 -8 12 -10 12 -16 -3 -3 -9 -10 -14 -15 -11 -6 3 -16 1 -24 -6 -9 -8 -15 -8
-20 0 -8 12 -25 4 -25 -13 0 -7 4 -6 10 3 5 8 10 10 10 4 0 -19 -13 -24 -28
-11 -10 8 -13 8 -9 1 4 -7 0 -15 -9 -18 -8 -3 -13 -10 -10 -15 3 -4 -5 -7 -19
-6 -13 2 -29 -3 -36 -11 -15 -18 -29 -9 -30 19 0 12 -3 16 -6 10 -2 -7 -9 -13
-15 -13 -6 0 -7 7 -4 16 3 9 2 12 -5 9 -6 -4 -17 1 -25 11 -9 11 -13 13 -9 4
4 -8 -5 -3 -19 13 -14 15 -31 26 -38 25 -7 -2 -12 3 -10 10 2 10 -7 12 -35 8
-26 -4 -33 -3 -23 3 8 5 18 7 22 5 4 -3 8 0 8 5 0 13 -2 13 -34 1 -22 -8 -26
-7 -26 8 0 15 -2 15 -10 2 -5 -8 -10 -10 -10 -5 0 11 -20 -16 -20 -28 0 -5 6
-5 13 -1 8 5 8 2 -2 -9 -16 -20 -2 -23 19 -4 12 10 12 9 2 -4 -6 -9 -8 -20 -4
-24 4 -5 2 -5 -5 -1 -6 3 -15 1 -19 -5 -4 -7 -3 -9 4 -5 6 3 13 2 17 -4 3 -5
0 -10 -7 -10 -9 -1 -7 -5 4 -14 10 -7 15 -16 11 -20 -4 -4 1 -4 12 -1 17 6 17
4 -4 -14 -13 -12 -18 -21 -12 -21 19 0 26 5 23 14 -2 5 3 4 11 -2 8 -7 17 -9
21 -5 4 4 4 -1 0 -11 -4 -11 -1 -22 7 -28 12 -8 11 -9 -1 -5 -9 3 -25 -2 -35
-10 -19 -13 -18 -14 9 -7 21 5 27 4 22 -5 -4 -6 -15 -11 -24 -11 -15 -1 -15
-2 1 -11 9 -6 15 -14 12 -20 -4 -5 -1 -9 5 -9 7 0 9 7 6 16 -3 8 2 24 12 35
14 14 19 16 19 5 0 -9 -7 -18 -16 -21 -13 -5 -13 -7 -1 -15 9 -6 18 -5 23 3 6
8 7 7 4 -3 -2 -8 -10 -14 -16 -12 -9 2 -9 -3 -2 -17 6 -10 7 -22 3 -26 -4 -5
-1 -5 6 -1 7 4 10 11 7 16 -10 17 13 19 26 3 9 -10 9 -14 2 -10 -7 5 -17 -1
-23 -13 -6 -11 -15 -18 -20 -15 -6 4 -7 -2 -3 -11 4 -11 8 -13 11 -6 7 21 21
13 17 -9 -3 -12 5 -30 19 -44 13 -13 23 -25 21 -27 -2 -2 3 -9 10 -15 11 -10
15 -9 20 7 4 11 10 20 15 20 6 0 5 -11 0 -26 -12 -32 -13 -44 0 -24 5 8 12 11
16 7 4 -3 1 -13 -5 -21 -10 -12 -9 -14 6 -12 10 2 17 11 17 20 -2 22 3 20 17
-5 8 -15 8 -19 0 -15 -6 4 -11 0 -11 -9 0 -12 5 -15 18 -11 14 5 14 4 -2 -9
-20 -15 -20 -15 0 -15 14 0 16 -2 6 -9 -11 -7 -11 -9 1 -14 18 -7 17 -28 -2
-51 -12 -14 -12 -16 0 -11 10 4 15 -2 16 -15 1 -11 -3 -20 -8 -20 -6 0 -8 4
-5 8 3 5 -1 9 -9 9 -9 0 -11 -5 -6 -11 4 -6 11 -21 14 -34 4 -17 2 -22 -8 -18
-10 3 -12 0 -8 -11 4 -10 2 -14 -4 -10 -6 4 -23 3 -38 -3 -24 -9 -26 -8 -21 7
6 14 4 14 -15 -3 -12 -10 -20 -14 -16 -8 3 6 0 11 -7 11 -8 0 -12 -6 -9 -13 3
-9 -2 -12 -16 -9 -14 3 -18 -1 -14 -11 4 -10 0 -12 -13 -7 -14 5 -16 3 -11
-11 4 -10 3 -15 -3 -11 -6 3 -10 1 -10 -5 0 -6 -6 -8 -13 -4 -9 6 -9 4 0 -6
10 -11 8 -19 -10 -39 -12 -14 -15 -20 -7 -14 13 10 16 8 16 -7 0 -10 -4 -17
-7 -14 -4 2 -11 -1 -15 -8 -4 -7 -4 -10 1 -6 15 14 35 -13 25 -33 -8 -15 -7
-17 5 -13 11 4 15 0 15 -16 0 -11 5 -18 10 -15 6 3 10 1 10 -5 0 -6 5 -8 10
-5 6 3 10 0 10 -8 0 -8 8 -21 17 -28 14 -12 16 -12 8 0 -6 11 -3 13 13 9 12
-4 22 -1 22 4 0 6 6 5 15 -2 10 -9 15 -9 15 -1 0 6 5 11 11 11 5 0 8 -4 5 -8
-3 -5 9 -8 26 -8 17 1 33 7 36 14 3 9 8 7 20 -6 10 -10 14 -13 10 -7 -8 12 68
13 79 0 5 -4 -3 -4 -17 -1 -21 6 -22 5 -8 -4 13 -8 24 -8 37 0 13 7 22 7 26 0
3 -5 1 -10 -6 -10 -7 0 -10 -3 -7 -6 4 -3 16 -1 27 6 17 9 22 8 27 -4 3 -8 16
-13 30 -11 13 1 27 -2 31 -8 4 -6 1 -7 -8 -2 -8 5 -11 4 -6 0 4 -5 16 -9 27
-10 16 -1 18 1 7 14 -8 12 -6 11 9 -1 11 -10 33 -19 47 -20 18 -2 26 -7 22
-15 -3 -10 0 -11 15 -3 13 7 21 7 26 -2 5 -7 3 -8 -6 -3 -9 6 -11 4 -5 -4 5
-9 11 -9 17 -3 7 7 17 4 31 -9 11 -10 23 -17 26 -14 2 3 -4 12 -15 21 -18 15
-18 15 2 5 12 -6 25 -7 29 -3 5 4 4 1 0 -7 -6 -11 -4 -13 8 -8 10 4 17 2 17
-5 0 -6 6 -5 17 3 15 12 16 12 8 -1 -8 -13 -7 -13 8 -1 14 11 17 11 18 0 0 -8
4 -5 9 6 6 14 9 15 10 5 0 -12 3 -11 11 3 6 9 14 15 20 12 5 -4 19 4 31 17 13
13 17 16 10 7 -9 -12 -10 -19 -2 -24 6 -4 9 -1 8 7 -2 7 3 12 9 11 7 -2 12 0
12 5 -1 4 -1 16 0 27 1 17 3 18 11 5 8 -12 10 -11 10 8 0 13 6 22 15 22 8 0
15 5 15 11 0 5 -5 7 -12 3 -7 -5 -8 -3 -4 5 5 7 15 10 23 7 8 -3 11 -1 8 4 -3
6 -3 16 2 22 4 7 8 20 8 28 0 8 6 14 13 12 8 -1 11 2 7 8 -3 6 -12 7 -18 3 -7
-4 -7 0 1 10 8 9 11 20 8 26 -3 5 0 11 7 14 8 3 12 20 11 43 -3 55 -3 56 -12
50 -5 -3 -8 15 -8 39 1 26 5 41 11 37 6 -3 1 5 -10 18 -18 21 -18 23 -2 17 15
-6 16 -4 7 14 -6 11 -15 17 -19 15 -4 -3 -8 1 -8 9 0 8 5 11 11 7 6 -3 3 7 -8
22 -10 16 -13 25 -7 22 6 -4 11 -2 11 3 0 6 -4 11 -9 11 -5 0 -12 7 -15 16 -3
8 -2 13 3 9 5 -3 8 2 7 11 -1 8 -8 19 -14 23 -6 4 -12 21 -14 39 -1 18 -6 32
-11 32 -4 0 -5 5 -2 10 4 6 11 8 16 5 15 -10 10 2 -8 16 -14 12 -16 12 -8 0 6
-10 4 -12 -4 -7 -7 5 -10 14 -7 22 3 8 2 14 -2 14 -4 0 -9 14 -10 32 -2 18 -8
36 -15 41 -8 6 -6 7 6 3 9 -3 17 -1 17 3 0 14 29 21 36 9 4 -6 3 -8 -4 -4 -6
3 -14 1 -18 -6 -4 -7 -4 -10 1 -6 4 4 15 2 23 -5 11 -8 14 -8 9 0 -7 11 7 26
28 29 6 0 17 2 25 3 13 1 13 2 0 11 -13 8 -13 10 2 10 12 0 15 5 11 17 -4 10
-2 14 4 10 7 -5 9 1 5 15 -4 16 -2 19 9 13 12 -7 12 -6 1 7 -10 13 -10 17 0
21 10 4 10 6 1 6 -7 1 -13 6 -13 12 0 5 6 7 13 3 6 -4 4 1 -5 12 -21 24 -21
34 0 57 14 16 14 17 0 12 -9 -4 -18 0 -22 10 -4 11 -2 14 7 10 6 -4 4 0 -6 8
-18 15 -18 15 0 20 16 4 16 5 1 6 -10 0 -18 6 -18 12 0 5 -5 7 -11 3 -8 -4 -8
0 0 15 8 14 8 21 1 21 -5 0 -10 -6 -10 -12 -1 -7 -6 -3 -13 10 -9 16 -16 19
-24 11 -8 -8 -13 -7 -18 2 -6 8 -4 10 6 4 8 -5 11 -4 6 0 -4 5 -16 9 -26 10
-13 1 -17 -3 -13 -14z m-903 -143 c-1 -13 5 -32 14 -43 15 -19 15 -19 -3 -5
-11 8 -22 14 -25 13 -9 -4 -8 20 1 40 12 23 15 22 13 -5z m260 -75 c-19 -13
-31 -11 -21 5 3 5 13 9 22 9 15 0 15 -2 -1 -14z m-140 -183 c4 -6 -1 -7 -11
-3 -11 4 -15 3 -10 -5 3 -6 3 -13 -2 -16 -4 -2 -9 4 -9 15 -2 20 21 26 32 9z
m-12 -63 c-4 -6 0 -8 11 -4 9 4 14 3 11 -2 -3 -5 -1 -12 5 -16 5 -3 10 -11 10
-16 0 -5 -13 4 -30 21 -34 34 -37 42 -15 34 8 -4 12 -11 8 -17z m902 -397 c-1
-11 -4 -22 -7 -25 -4 -5 -4 34 1 43 4 8 7 -1 6 -18z m-765 -205 c0 -2 -9 -3
-19 -2 -11 0 -18 5 -15 9 4 6 34 0 34 -7z"/>
<path d="M36 1143 c-6 -14 -5 -15 5 -6 7 7 10 15 7 18 -3 3 -9 -2 -12 -12z"/>
<path d="M100 965 c-10 -12 -10 -15 4 -15 9 0 16 7 16 15 0 8 -2 15 -4 15 -2
0 -9 -7 -16 -15z"/>
<path d="M135 851 c-3 -5 -2 -12 3 -15 5 -3 9 1 9 9 0 17 -3 19 -12 6z"/>
<path d="M1110 420 c0 -5 5 -10 11 -10 5 0 7 5 4 10 -3 6 -8 10 -11 10 -2 0
-4 -4 -4 -10z"/>
</g>
</svg>
